<?xml version="1.0" standalone="no"?>
<!DOCTYPE svg PUBLIC "-//W3C//DTD SVG 20010904//EN"
 "http://www.w3.org/TR/2001/REC-SVG-20010904/DTD/svg10.dtd">
<svg version="1.0" xmlns="http://www.w3.org/2000/svg"
 width="700.000000pt" height="700.000000pt" viewBox="0 0 700.000000 700.000000"
 preserveAspectRatio="xMidYMid meet">
<metadata>
Created by potrace 1.14, written by Peter Selinger 2001-2017
</metadata>
<g transform="translate(0.000000,700.000000) scale(0.100000,-0.100000)"
fill="#000000" stroke="none">
<path d="M3248 6775 c-2 -2 -30 -6 -63 -9 -682 -64 -1335 -348 -1855 -806
-121 -107 -261 -251 -350 -360 -25 -30 -47 -57 -50 -60 -36 -34 -200 -276
-274 -404 -136 -236 -278 -577 -322 -771 -1 -5 -9 -37 -18 -70 -16 -61 -51
-238 -61 -310 -4 -22 -8 -50 -10 -61 -27 -165 -27 -665 -1 -834 2 -14 7 -47
11 -75 29 -218 131 -590 204 -750 5 -11 28 -63 51 -115 46 -106 110 -227 178
-340 48 -80 141 -222 151 -230 4 -3 15 -18 24 -33 10 -16 27 -38 37 -50 10
-12 52 -62 93 -112 289 -346 659 -634 1077 -837 262 -127 575 -231 825 -273
17 -3 43 -8 58 -11 39 -8 55 -10 262 -34 74 -8 562 -6 605 3 14 3 54 8 89 12
35 3 67 7 70 9 3 2 31 7 61 10 240 28 632 155 915 296 442 220 815 523 1127
915 57 71 228 320 228 331 0 3 8 18 19 32 65 91 214 418 284 622 43 125 101
360 123 496 3 20 7 45 9 55 2 10 7 49 10 86 4 37 11 91 15 118 8 53 6 576 -3
610 -2 11 -8 47 -11 80 -8 67 -31 208 -50 300 -48 231 -166 558 -286 790 -85
164 -201 353 -274 447 -12 14 -32 41 -46 59 -106 140 -301 349 -435 464 -38
33 -75 65 -81 70 -6 6 -26 21 -44 35 -18 14 -49 38 -69 54 -177 141 -516 331
-766 429 -115 45 -331 114 -411 132 -11 2 -50 11 -89 19 -84 19 -222 43 -290
51 -27 3 -70 8 -95 12 -47 6 -566 13 -572 8z m1839 -1362 c25 -27 161 -167
302 -311 380 -392 401 -413 401 -421 0 -4 -43 -52 -97 -106 -205 -212 -656
-676 -819 -844 -95 -97 -212 -217 -260 -268 -49 -50 -188 -193 -309 -318 -121
-124 -265 -273 -320 -329 -55 -57 -219 -226 -365 -376 -146 -149 -305 -314
-355 -365 -49 -51 -189 -195 -310 -320 l-220 -226 -129 133 c-71 73 -254 261
-406 418 -153 157 -308 317 -346 357 -58 59 -547 563 -622 640 -13 13 -22 28
-20 33 2 4 174 182 382 394 l379 386 81 -84 c45 -46 187 -193 316 -326 129
-133 263 -271 297 -306 34 -35 64 -64 67 -64 5 0 182 179 367 371 30 30 172
177 316 325 144 148 303 312 353 364 51 52 212 218 359 369 146 150 302 311
346 356 439 453 550 565 557 565 5 0 30 -21 55 -47z"/>
</g>
</svg>
